<svg viewBox="0 0 32 32" xmlns="http://www.w3.org/2000/svg" width="32" height="32" fill="currentColor" > <path d="M17.78 5.068c.927 0 1.854.351 2.562 1.051l7.414 7.343a3.564 3.564 0 0 1 0 5.075l-7.414 7.344a3.65 3.65 0 0 1-4.301.611H6.806c-2 0-3.623-1.607-3.623-3.589V12.517c0-1.981 1.622-3.589 3.623-3.589h5.576l2.837-2.809a3.63 3.63 0 0 1 2.376-1.047zm0 2.19c-.377 0-.73.146-.998.41L9.37 15.012a1.39 1.39 0 0 0 0 1.976l7.413 7.344c.267.263.621.41.998.41s.732-.147.997-.41l7.414-7.344a1.39 1.39 0 0 0 0-1.976l-7.414-7.344a1.4 1.4 0 0 0-.998-.41zm0 10.452c.975 0 1.764.783 1.764 1.748 0 .966-.79 1.748-1.764 1.748a1.756 1.756 0 0 1-1.765-1.748c0-.964.79-1.748 1.765-1.748m0-6.747c.975 0 1.764.783 1.764 1.748 0 .964-.79 1.748-1.764 1.748a1.756 1.756 0 0 1-1.765-1.748c0-.966.79-1.748 1.765-1.748"></path> </svg>