<svg viewBox="0 0 32 32" xmlns="http://www.w3.org/2000/svg" width="32" height="32" fill="currentColor"> <path d="M16 4c6.628 0 12 5.372 12 12s-5.372 12-12 12S4 22.629 4 16 9.372 4 16 4m2.987 13.272a3.375 3.375 0 1 0 0 6.751 3.375 3.375 0 0 0 0-6.75m2.944-7.186a.94.94 0 0 0-1.326.001L10.019 20.696a.938.938 0 0 0 1.395 1.249L22 11.336a.94.94 0 0 0-.07-1.25m-2.944 9.062a1.5 1.5 0 1 1 0 3 1.5 1.5 0 0 1 0-3M12.25 8.65a3.375 3.375 0 1 0 0 6.75 3.375 3.375 0 0 0 0-6.75m0 1.875a1.5 1.5 0 1 1-.001 3.001 1.5 1.5 0 0 1 0-3"></path> </svg>