<svg viewBox="0 0 32 32" xmlns="http://www.w3.org/2000/svg" width="32" height="32" fill="none"> <path fill="currentColor" d="M21.738 4a4.84 4.84 0 0 1 4.838 4.838v10.378a3.663 3.663 0 0 1-3.663 3.662l-1.347-.001v1.461A3.66 3.66 0 0 1 17.905 28H8.662A3.66 3.66 0 0 1 5 24.338V12.784a3.66 3.66 0 0 1 3.662-3.662h1.346v-1.46a3.66 3.66 0 0 1 3.485-3.658L13.67 4zm0 2.16h-8.067c-.828 0-1.502.675-1.502 1.503v1.46h5.919a3.48 3.48 0 0 1 3.478 3.48v8.115h1.347c.787 0 1.435-.609 1.498-1.38l.005-.123V8.838a2.68 2.68 0 0 0-2.677-2.677z"></path> </svg>