<svg width="14" height="17" viewBox="0 0 14 17" fill="none" xmlns="http://www.w3.org/2000/svg"><path d="M13.9655 4.61839C13.9464 4.19746 13.9464 3.79567 13.9464 3.39387C13.9464 3.06861 13.6976 2.81988 13.3724 2.81988C10.9807 2.81988 9.16311 2.13109 7.6516 0.657848C7.422 0.447384 7.0776 0.447384 6.84801 0.657848C5.3365 2.13109 3.51886 2.81988 1.12723 2.81988C0.80197 2.81988 0.553241 3.06861 0.553241 3.39387C0.553241 3.79567 0.55324 4.19746 0.534107 4.61839C0.457575 8.63632 0.342777 14.1466 7.05847 16.4617L7.2498 16.5L7.44113 16.4617C14.1377 14.1466 14.042 8.65546 13.9655 4.61839ZM6.79061 10.1861C6.67581 10.2818 6.54188 10.3392 6.38882 10.3392H6.36968C6.21662 10.3392 6.06355 10.2626 5.96789 10.1478L4.18852 8.17713L5.0495 7.41181L6.44621 8.96158L9.54577 6.0151L10.3302 6.85695L6.79061 10.1861Z" fill="currentColor"></path></svg>