<svg viewBox="0 0 32 32"><path d="M12.926 30c-6.034 0-10.925-4.892-10.925-10.925v-6.149c0-6.034 4.892-10.925 10.925-10.925h6.149c6.033 0 10.925 4.892 10.925 10.925v6.149c0 6.034-4.892 10.925-10.925 10.925h-6.149zM12.926 27.62h6.149c4.721 0 8.546-3.827 8.546-8.546v-6.149c0-4.721-3.827-8.546-8.546-8.546h-6.149c-4.721 0-8.546 3.827-8.546 8.546v6.149c0 4.721 3.827 8.546 8.546 8.546zM16.001 12.841c-0.713 0-1.303-0.53-1.396-1.217l-0.012-0.191v-0.090c0-0.778 0.631-1.409 1.409-1.409 0.713 0 1.303 0.53 1.396 1.217l0.012 0.191v0.090c0 0.778-0.631 1.409-1.409 1.409zM16.001 22.874c-0.713 0-1.303-0.53-1.396-1.217l-0.012-0.191v-6.047c0-0.778 0.631-1.409 1.409-1.409 0.713 0 1.303 0.53 1.396 1.217l0.012 0.191v6.047c0 0.779-0.631 1.409-1.409 1.409z" fill='currentColor'></path></svg>