<svg xmlns="http://www.w3.org/2000/svg" width="10" height="10" viewBox="0 0 10 10" fill="none"><path fill-rule="evenodd" clip-rule="evenodd" d="M7.45864 0.641209C7.49143 0.550432 7.63132 0.545478 7.66946 0.634162C7.80771 0.955617 8.05395 1.47383 8.3167 1.76877C8.57615 2.06 9.04628 2.27048 9.34513 2.38259C9.43422 2.416 9.4412 2.55297 9.35546 2.59417C9.06651 2.73303 8.60584 2.98135 8.3167 3.27305C8.03015 3.56214 7.79745 4.02622 7.66745 4.32176C7.62878 4.40965 7.48766 4.40668 7.45201 4.31754C7.33546 4.02613 7.12247 3.57264 6.82952 3.27305C6.53061 2.96737 6.05684 2.72311 5.75997 2.58889C5.67288 2.54952 5.67676 2.41157 5.7659 2.37705C6.06657 2.26062 6.54232 2.04687 6.82952 1.76877C7.12038 1.48712 7.34094 0.967013 7.45864 0.641209ZM3.36353 3.4679C3.4312 3.2871 3.7131 3.27716 3.79077 3.45393C4.02343 3.98343 4.40398 4.75996 4.8084 5.21392C5.2066 5.66089 5.90743 5.99187 6.39737 6.18316C6.57462 6.25236 6.58857 6.52894 6.41795 6.61305C5.94286 6.84724 5.25233 7.23274 4.8084 7.6806C4.36941 8.12347 4.0075 8.81681 3.78798 9.30125C3.70871 9.47618 3.4232 9.47019 3.34956 9.29284C3.15155 8.81601 2.81764 8.13862 2.36977 7.6806C1.91079 7.21122 1.20037 6.83016 0.712165 6.60288C0.538876 6.52221 0.546763 6.24362 0.724246 6.17255C1.21781 5.97491 1.92913 5.64061 2.36977 5.21392C2.81713 4.78073 3.16308 4.00352 3.36353 3.4679Z" fill="currentColor"></path></svg>