<svg width="13" height="13" viewBox="0 0 13 13" xmlns="http://www.w3.org/2000/svg"><path d="M7.74023 6.99885C8.65196 6.99885 9.39106 7.73796 9.39106 8.64969V12.423C9.39106 13.3348 8.65196 14.0739 7.74023 14.0739C6.8285 14.0739 6.08939 13.3348 6.08939 12.423V8.64969C6.08939 7.73796 6.8285 6.99885 7.74023 6.99885ZM11.9852 5.11219C12.897 5.11219 13.6361 5.85129 13.6361 6.76302V12.423C13.6361 13.3348 12.897 14.0739 11.9852 14.0739C11.0735 14.0739 10.3344 13.3348 10.3344 12.423V6.76302C10.3344 5.85129 11.0735 5.11219 11.9852 5.11219ZM3.49523 9.82885C4.40696 9.82885 5.14606 10.568 5.14606 11.4797V12.423C5.14606 13.3348 4.40696 14.0739 3.49523 14.0739C2.5835 14.0739 1.8444 13.3348 1.8444 12.423V11.4797C1.8444 10.568 2.5835 9.82885 3.49523 9.82885ZM13.27 0.867188C13.7328 0.867188 14.1077 1.24216 14.1077 1.70487C14.1077 2.16757 13.7328 2.54255 13.27 2.54255H11.8588C11.5065 2.54255 11.1744 2.69584 10.9461 2.95809L10.866 3.06138L10.0863 4.18489C9.62548 4.849 8.88874 5.26454 8.08785 5.32066L7.90201 5.32727H7.00679C6.66105 5.32727 6.33419 5.4749 6.10685 5.72866L6.02619 5.82865L4.95928 7.30968C4.49563 7.95303 3.77021 8.35348 2.98394 8.40725L2.80141 8.41338H1.73874C1.27604 8.41338 0.901062 8.03841 0.901062 7.5757C0.901062 7.113 1.27604 6.73802 1.73874 6.73802H2.80141C3.14714 6.73802 3.474 6.59039 3.70135 6.33663L3.782 6.23664L4.84891 4.75561C5.31256 4.11225 6.03798 3.71181 6.82425 3.65804L7.00679 3.65191H7.90201C8.25434 3.65191 8.5864 3.49862 8.81468 3.23637L8.89487 3.13307L9.67453 2.00956C10.1354 1.34546 10.8721 0.929919 11.673 0.873791L11.8588 0.867188H13.27Z" fill="currentColor"></path></svg>