<svg viewBox="0 0 32 32" xmlns="http://www.w3.org/2000/svg" width="32" height="32">
	<path fill="currentColor" d="M18.897 17.115c0-.652.724-1.06 1.304-.734l5.364 3.019a.836.836 0 0 1 0 1.467l-5.364 3.018c-.58.326-1.304-.082-1.304-.733v-1.886H7.57a.776.776 0 0 1-.786-.765v-.735c0-.423.352-.765.786-.765h11.327zm-7.097-9c.58-.326 1.304.082 1.304.733v1.886H24.43c.434 0 .785.342.785.764v.736a.776.776 0 0 1-.785.765H13.104v1.886c0 .625-.668 1.026-1.234.77l-.07-.036L6.435 12.6a.836.836 0 0 1 0-1.467z" />
</svg>